<svg xmlns="http://www.w3.org/2000/svg" version="1.1" xmlns:xlink="http://www.w3.org/1999/xlink" xmlns:svgjs="http://svgjs.com/svgjs" width="1000" height="1000"><rect width="1000" height="1000" rx="500" ry="500" fill="#ffffff"></rect><g transform="matrix(1.3888888888888888,0,0,1.3888888888888888,0,0.00002353461485427033)"><svg xmlns="http://www.w3.org/2000/svg" version="1.1" xmlns:xlink="http://www.w3.org/1999/xlink" xmlns:svgjs="http://svgjs.com/svgjs" width="720" height="720"><svg version="1.2" baseProfile="tiny" id="Layer_1" xmlns="http://www.w3.org/2000/svg" xmlns:xlink="http://www.w3.org/1999/xlink" x="0px" y="0px" viewBox="0 0 720 720" overflow="visible" xml:space="preserve">
<circle display="none" fill="#FFFFFF" cx="360" cy="360" r="360"></circle>
<g>
	<g>
		<path fill="none" d="M360,76.52143c71.00131,0,135.90466,26.10434,185.63971,69.23716l25.55652-25.55651
			C512.81201,68.6395,438.57709,40.44941,360,40.44941c-78.57761,0-152.81134,28.19001-211.1964,79.75252l25.55667,25.55667
			C224.09534,102.62577,288.99869,76.52143,360,76.52143z"></path>
		<path fill="none" d="M76.52146,359.99997c0-71.0014,26.10434-135.90466,69.23716-185.63974l-25.55667-25.55666
			c-51.5625,58.38504-79.75251,132.61879-79.75251,211.1964c0,78.57709,28.19009,152.81198,79.75268,211.19626l25.5565-25.55652
			C102.6258,495.90463,76.52146,431.00128,76.52146,359.99997z"></path>
		<path fill="none" d="M599.79779,148.80382l-25.5564,25.55641c43.13281,49.73508,69.23712,114.63834,69.23712,185.63974
			c0,71.00131-26.10431,135.90466-69.23712,185.63974l25.55621,25.55627c51.56305-58.38428,79.75293-132.61908,79.75293-211.19601
			C679.55054,281.42245,651.36066,207.18887,599.79779,148.80382z"></path>
		<path fill="none" d="M360,643.47852c-71.00131,0-135.90466-26.10437-185.63972-69.23718l-25.55643,25.55646
			C207.1889,651.3606,281.42249,679.55054,360,679.55054c78.57693,0,152.81177-28.18994,211.19598-79.75293l-25.55627-25.55627
			C495.90466,617.37415,431.00131,643.47852,360,643.47852z"></path>
		<path d="M679.55054,359.99997c0,78.57693-28.18988,152.81174-79.75293,211.19601l28.65515,28.65509
			C687.62604,533.78778,720,449.38629,720,359.99997c0-89.38651-32.37396-173.78734-91.54755-239.8508l-28.65466,28.65465
			C651.36066,207.18887,679.55054,281.42245,679.55054,359.99997z"></path>
		<path d="M360,40.44941c78.57709,0,152.81201,28.1901,211.19623,79.75267l28.6546-28.65456
			C533.78741,32.37433,449.38617-0.00003,360-0.00003c-89.38632,0-173.78717,32.37453-239.85046,91.54787l28.65408,28.65408
			C207.18866,68.63942,281.42239,40.44941,360,40.44941z"></path>
		<path d="M40.44944,359.99997c0-78.57761,28.19001-152.81136,79.75251-211.1964L91.54788,120.1495
			C32.37453,186.2128,0,270.61365,0,359.99997c0,89.38617,32.37436,173.78738,91.54755,239.8508l28.65457-28.65454
			C68.63953,512.81195,40.44944,438.57706,40.44944,359.99997z"></path>
		<path d="M360,679.55054c-78.57751,0-152.8111-28.18994-211.19615-79.75275l-28.65465,28.6546
			C186.21266,687.62604,270.61349,719.99994,360,719.99994c89.38632,0,173.78784-32.3739,239.85114-91.54718l-28.65515-28.65515
			C512.81177,651.3606,438.57693,679.55054,360,679.55054z"></path>
	</g>
	<g>
		<polygon fill="none" points="308.77243,486.10574 308.7684,486.10977 233.89085,411.23221 233.89522,411.22784 
			182.66766,359.99997 242.77382,299.8938 214.17151,271.2915 125.46304,359.99997 205.29308,439.82999 205.29761,439.82547 
			280.17514,514.703 280.17062,514.70752 360,594.53693 448.70837,505.82852 420.10675,477.2269 360,537.33362 		"></polygon>
		<polygon fill="none" points="448.67068,299.93091 420.06903,271.32928 378.22958,313.16876 378.41342,313.35266 
			303.53586,388.23022 303.35202,388.0463 271.32932,420.069 299.93097,448.67065 360,388.60162 360.17554,388.77707 
			388.77719,360.17542 388.60165,359.99997 		"></polygon>
		<polygon fill="none" points="594.53693,359.99997 514.70758,280.17059 514.70306,280.17511 439.8255,205.29758 
			439.83005,205.29305 360,125.46301 271.36633,214.09668 299.96866,242.69899 360,182.66763 411.22791,233.89519 
			411.23224,233.89082 486.1098,308.76837 486.10577,308.7724 537.33368,359.99997 477.30164,420.03198 505.90329,448.63364 		"></polygon>
		<path d="M574.24139,545.63971c43.13281-49.73508,69.23712-114.63843,69.23712-185.63974
			c0-71.0014-26.10431-135.90466-69.23712-185.63974l-68.37579,68.37579l-28.60165-28.60165l68.37576-68.37578
			C495.90466,102.62577,431.00131,76.52143,360,76.52143s-135.90466,26.10434-185.63972,69.23716l82.67207,82.67207l0.03317-0.03316
			l28.60229,28.60231l-0.03317,0.03314l60.24847,60.24838L317.28146,345.883l-34.56177-34.56177l0.04156-0.04156l-74.87755-74.87753
			l-0.04156,0.04156l-62.08353-62.08347c-43.13282,49.73508-69.23716,114.63834-69.23716,185.63974
			c0,71.00131,26.10434,135.90466,69.23716,185.63974l68.37578-68.37579l28.60165,28.60165l-68.37578,68.37576
			C224.09534,617.37415,288.99869,643.47852,360,643.47852s135.90466-26.10437,185.63971-69.23718l-59.53412-59.53412
			l0.04156-0.04156l-74.87753-74.87753l-0.04156,0.04156l-36.75171-36.7518l28.60165-28.60162l59.88965,59.88971l0.03317-0.03317
			l28.60165,28.60165l-0.03317,0.03317L574.24139,545.63971z M420.10675,477.2269l28.60162,28.60162L360,594.53693
			l-79.82938-79.82941l0.00452-0.00452l-74.87753-74.87753l-0.00453,0.00452l-79.83003-79.83002l88.70847-88.70847
			l28.60231,28.60229l-60.10616,60.10617l51.22755,51.22787l-0.00436,0.00436l74.87755,74.87756l0.00403-0.00403L360,537.33362
			L420.10675,477.2269z M360.17554,388.77707L360,388.60162l-60.06903,60.06903L271.32932,420.069l32.02271-32.02271
			l0.18384,0.18393l74.87756-74.87756l-0.18384-0.1839l41.83945-41.83948l28.60165,28.60162l-60.06903,60.06906l0.17554,0.17545
			L360.17554,388.77707z M477.30164,420.03198l60.03204-60.03201l-51.22791-51.22757l0.00403-0.00403l-74.87756-74.87755
			l-0.00433,0.00436L360,182.66763l-60.03134,60.03136l-28.60233-28.60231L360,125.46301l79.83005,79.83003l-0.00455,0.00453
			l74.87756,74.87753l0.00452-0.00452l79.82935,79.82938l-88.63364,88.63367L477.30164,420.03198z"></path>
	</g>
</g>
</svg></svg></g></svg>