<svg version="1" xmlns="http://www.w3.org/2000/svg" width="533.333" height="533.333" viewBox="0 0 400.000000 400.000000"><path d="M74.5 44l43.9 44-14.9 15-15 15-44.2-44.2L0 29.5v340l82.8-82.8 82.7-82.7 15 15c8.2 8.2 14.6 15.3 14.2 15.7l-83 83L29.5 400h341L327 356.5 283.5 313l15-15 15-15 43.2 43.2 43.3 43.3V29.7l-83 82.9c-45.7 45.6-83.3 83.1-83.5 83.4-.3.2-7.3-6.3-15.5-14.5l-15-15 83.2-83.2L369.5 0h-339l44 44zm163 7l37 37-15.1 15.1-15.1 15.1-21.7-21.7C210.7 84.6 200.5 75 200 75.2c-.6.2-29.3 28.6-64 63.3l-63 63 22.1 21.9 22.1 21.9-15.1 15.1L87 275.5l-37.3-37.3L12.5 201l93.5-93.5C157.4 56.1 199.7 14 200 14c.3 0 17.2 16.7 37.5 37zM350 163.5l37.5 37.5-93.8 93.8-93.7 93.7-37.7-37.7-37.8-37.8 15.1-15.1 15.1-15.1 22.7 22.8 22.8 22.7 63.6-63.6 63.7-63.7-22.9-22.6-22.8-22.7 14.8-14.8c8.2-8.2 15.1-14.9 15.4-14.9.3 0 17.4 16.9 38 37.5zm-134.2 22.8l59.2 59.2-15 15-15 15-59.7-59.8-59.8-59.7 14.5-14.5c8-8 14.9-14.5 15.5-14.5.5 0 27.7 26.7 60.3 59.3z"/></svg>